<svg width="28" height="26" viewBox="0 0 28 26" fill="none" xmlns="http://www.w3.org/2000/svg">
<path d="M26.25 11.2502H5.495L11.8475 3.62024C12.1445 3.26286 12.2875 2.80212 12.2448 2.33937C12.2021 1.87663 11.9774 1.44978 11.62 1.15274C11.2626 0.855696 10.8019 0.712787 10.3391 0.755452C9.87639 0.798117 9.44954 1.02286 9.1525 1.38024L0.4025 11.8802C0.343631 11.9638 0.290989 12.0515 0.245 12.1427C0.245 12.2302 0.245 12.2827 0.1225 12.3702C0.0431789 12.5709 0.00164696 12.7845 0 13.0002C0.00164696 13.216 0.0431789 13.4296 0.1225 13.6302C0.1225 13.7177 0.1225 13.7702 0.245 13.8577C0.290989 13.949 0.343631 14.0367 0.4025 14.1202L9.1525 24.6202C9.31704 24.8178 9.52308 24.9767 9.75598 25.0855C9.98888 25.1944 10.2429 25.2507 10.5 25.2502C10.9089 25.251 11.3052 25.1086 11.62 24.8477C11.7972 24.7008 11.9437 24.5204 12.051 24.3168C12.1584 24.1132 12.2246 23.8904 12.2457 23.6612C12.2668 23.432 12.2425 23.2009 12.1742 22.9811C12.1059 22.7612 11.9949 22.5571 11.8475 22.3802L5.495 14.7502H26.25C26.7141 14.7502 27.1593 14.5659 27.4874 14.2377C27.8156 13.9095 28 13.4644 28 13.0002C28 12.5361 27.8156 12.091 27.4874 11.7628C27.1593 11.4346 26.7141 11.2502 26.25 11.2502Z" fill="white"/>
</svg>
