<svg width="12" height="16" viewBox="0 0 12 16" fill="none" xmlns="http://www.w3.org/2000/svg">
<path d="M5.9999 15.5C4.94735 14.6022 3.97173 13.6179 3.08323 12.5575C1.7499 10.965 0.166566 8.59333 0.166566 6.33333C0.165987 5.17913 0.507823 4.0507 1.14881 3.09085C1.7898 2.131 2.70112 1.38288 3.76746 0.94116C4.83379 0.499443 6.00719 0.383987 7.13916 0.609405C8.27113 0.834823 9.31079 1.39098 10.1266 2.2075C10.6697 2.74821 11.1002 3.39128 11.3931 4.09947C11.6861 4.80767 11.8357 5.56694 11.8332 6.33333C11.8332 8.59333 10.2499 10.965 8.91656 12.5575C8.02807 13.6179 7.05245 14.6022 5.9999 15.5ZM5.9999 3.83333C5.33686 3.83333 4.70097 4.09672 4.23213 4.56556C3.76329 5.0344 3.4999 5.67029 3.4999 6.33333C3.4999 6.99637 3.76329 7.63226 4.23213 8.1011C4.70097 8.56994 5.33686 8.83333 5.9999 8.83333C6.66294 8.83333 7.29882 8.56994 7.76767 8.1011C8.23651 7.63226 8.4999 6.99637 8.4999 6.33333C8.4999 5.67029 8.23651 5.0344 7.76767 4.56556C7.29882 4.09672 6.66294 3.83333 5.9999 3.83333Z" fill="#9B9B9B"/>
</svg>
