<svg width="34" height="23" viewBox="0 0 34 23" fill="none" xmlns="http://www.w3.org/2000/svg">
<path d="M0.75 3.6875C0.75 1.79 2.29 0.25 4.1875 0.25H30.3125C32.21 0.25 33.75 1.79 33.75 3.6875V18.8125C33.75 20.71 32.21 22.25 30.3125 22.25H4.1875C2.29 22.25 0.75 20.71 0.75 18.8125V3.6875ZM9 4.375V3H6.25V4.375C6.25 4.73967 6.10513 5.08941 5.84727 5.34727C5.58941 5.60513 5.23967 5.75 4.875 5.75H3.5V8.5H4.875C5.96902 8.5 7.01823 8.0654 7.79182 7.29182C8.5654 6.51823 9 5.46902 9 4.375ZM22.75 11.25C22.75 9.79131 22.1705 8.39236 21.1391 7.36091C20.1076 6.32946 18.7087 5.75 17.25 5.75C15.7913 5.75 14.3924 6.32946 13.3609 7.36091C12.3295 8.39236 11.75 9.79131 11.75 11.25C11.75 12.7087 12.3295 14.1076 13.3609 15.1391C14.3924 16.1705 15.7913 16.75 17.25 16.75C18.7087 16.75 20.1076 16.1705 21.1391 15.1391C22.1705 14.1076 22.75 12.7087 22.75 11.25ZM28.25 3H25.5V4.375C25.5 5.46902 25.9346 6.51823 26.7082 7.29182C27.4818 8.0654 28.531 8.5 29.625 8.5H31V5.75H29.625C29.2603 5.75 28.9106 5.60513 28.6527 5.34727C28.3949 5.08941 28.25 4.73967 28.25 4.375V3ZM9 18.125C9 17.031 8.5654 15.9818 7.79182 15.2082C7.01823 14.4346 5.96902 14 4.875 14H3.5V16.75H4.875C5.23967 16.75 5.58941 16.8949 5.84727 17.1527C6.10513 17.4106 6.25 17.7603 6.25 18.125V19.5H9V18.125ZM28.25 19.5V18.125C28.25 17.7603 28.3949 17.4106 28.6527 17.1527C28.9106 16.8949 29.2603 16.75 29.625 16.75H31V14H29.625C28.531 14 27.4818 14.4346 26.7082 15.2082C25.9346 15.9818 25.5 17.031 25.5 18.125V19.5H28.25Z" fill="#39B54A"/>
</svg>
