<svg width="34" height="23" viewBox="0 0 34 23" fill="none" xmlns="http://www.w3.org/2000/svg">
<path d="M4.37493 22.7501C3.50379 22.7505 2.6549 22.475 1.94994 21.9632C1.24499 21.4514 0.720159 20.7296 0.450684 19.9011C0.832934 19.9671 1.22343 20.0001 1.62493 20.0001H24.3124C25.9535 20.0001 27.5273 19.3482 28.6877 18.1879C29.848 17.0275 30.4999 15.4537 30.4999 13.8126V0.983887C31.3045 1.26835 32.0011 1.79536 32.4936 2.49229C32.9861 3.18921 33.2504 4.02174 33.2499 4.87514V13.8126C33.2499 14.9863 33.0188 16.1485 32.5696 17.2329C32.1205 18.3172 31.4621 19.3025 30.6322 20.1324C29.8023 20.9623 28.817 21.6207 27.7327 22.0698C26.6483 22.519 25.4861 22.7501 24.3124 22.7501H4.37493Z" fill="#39B54A"/>
</svg>
